<svg version="1" xmlns="http://www.w3.org/2000/svg" width="360" height="382.667" viewBox="0 0 270 287"><path d="M38 10v12c1 4 1 5 3 5 5 0 6 4 3 7-2 2-3 3-3 1l-1-2c-2-3-3-1-1 1v1c-2-1-2 0-2 7 0 6 0 8 2 10l1 3 1 2c1 0 2-1 2-3 0-4 2-6 3-4l1 1v-1l2-1 2-1v-1l-1-1h2l1-2v-2l1 3c0 3 1 4 2 1l3-1c2 0 2-1 2-2 0-2-1-2-2-2l-2-1-1-2 1-2c1 1 2 0 2-1l1-3v-3c1-1 1-1-1-1l-2-2 2-1c2 1 5-2 5-5h-2c-2 2-5 2-7 1-3-4 2-10 6-8 2 1 2 2 2 4l2 2h3l1-2h1v4l1 2 1-3c0-2 1-3 3-1l-1 1c-1-1-1-1-1 1h1c1-1 2-2 1-3 0-2 0-2 2-1 6 4 8 7 5 10v1c2-1 2-1 1 1-2 2-2 3 0 5l2 2-2 2-4 2 2 3c3 4 4 5 1 9-1 2-1 2 1 5 1 2 2 4 1 5v2l-1 1-1 2 1 1c1 0 2 5 1 7l-2 2v1c2 1 2 1 1 2v1c1 0 1 5-1 7l-3 3 1 2 3 2v3c0 3 0 3 1 1 0-3 0-3 2-2 2 2 1 6-1 8-4 2-5 1-4-2l1-6c0-2-1-1-1 2-2 6-3 8-4 7l-1-1-1-2h-1l-2 1c-2 0-2-1-1-4l-1-4-1 5c0 2 0 3-2 3l-2 1 1 1 3 2 13 1 13-1 1-5c1-4 0-5-1-5l-1-2-1 1v2c2 0 1 3-1 3s-2 0-1 1 0 2-1 3c-3 1-3 1-2-2l1-4v-4h-1-2v-3l2-3v-1l1-3h1v2c-1 1-2 2-1 3h1l2-1c1 1 1 1 1-1-2-2-2-14-1-13l1 4c-1 4 1 8 1 4v-4l2-1c2 1 3 0 3-1 0-2 0-2-2-2-3 0-3 0-2-2l-1-3v-2-2l1-1 1-1 1-2c2 2 2-1 0-3l-1-1c1 2-1 5-2 5v-2l-1-3c-1-1-1-1 1-1 3-1 4-3 3-5l1-1v-1c-3-1-3-4 0-3l4-3c1-2 1-2-1-1-2 2-4 3-6 0v-3c1-2 7-2 6 0l1 1c2 0 1-6-1-7l-3 1h-1l1-2 1-1-1-1-2-1 1-1c1 1 2 0 2-2 1-4 0-9-1-7s-6 1-6-1c-1-2-1-2 1-1 2 2 2 2 4 0l2-3h4l2 1 1 1h-5l1 1 2 1h4c3 0 5-1 5-2l-2-1-2-1-1-2 4-1 5 1c2 2 5 3 9 3 3 0 4 0 3-3 0-2 0-2 5-2l6 1c0 1-1 3-3 3-1 1 1 1 4 1l5-1 3-1c2 0 3 0 4 3 0 2 0 2 7 2 7-1 7-1 7 1s-1 3-3 3h-2l2 3 3 2v62h1l1-2c-1-2 0-8 2-10v-2-6-3l-1 3c-1 1-1-1 1-7 0-1 0-2-1-1l-1-1 1-1v-3c-2-1-2-2-1-5V40h4c3 0 3-1 2-4l1-3 1-2c-1-2 0-2 2-3 3-2 3-3 0-2v-1-2l1-1h2l-2-2v-1l2-4c0-2 0-3 2-3v-2h-82l-5 1h2l3 1 1 1h2c0 2-2 2-5 1-4-2-8-1-8 1l-1 2-1 2h-1c-1-1-1-1-1 1 1 4-1 4-4 1s-3-4 0-4c2 0 2 0 1 2 0 2 1 1 2-1l1-5c-1-2-2-2-25-3L39 9c-1-1-1-1-1 1zm141 3c0 3-4 4-5 1s0-4 2-4 3 1 3 3zm-19 2l-2 1h-3l-2-2c-1-1 0-1 3-1s4 0 4 2zM56 29l-3 1-1-1 2-1 2 1zm-1 8v2l1 1-3 1c-1 0-2-1-1-2v-1c-2-1 0-4 1-4 2 0 2 1 2 3zM202 12c0 3 0 3-5 3l-6 1-2 2c-3 0-4 3-1 3l1-2 1-1 1 2c0 1 1 2 3 2 4 1 4 0 3-2l1-3h1l1 5c1 1 1 2 2 1l2-7c-1 1-1 0-1-1l2-3c3 0 3-3 0-3s-3 1-3 3zM209 11v1l3 1-3 1h5c0 1 7 0 8-2h4c0 3 0 4 6 4l6-1 2-2v1l-1 2-4 1-5 2-4 2c-3-1-4 0-4 5l-1 2v43l1 37v2 1c1 0 2-2 1-3-1-2-1-6 1-7v-5l2-1-1-1-2-2v-1l2 1v-3l-1-3-1-2h-1c0-1 0-2 1-1 2 1 2-2 1-3-2-2-2-3 0-3l1-1-2-2v-1c1-1 2 0 3 2l3 2 2 2h1v-4l1-2 1 1c-1 2 0 3 2 2 2-2 2 0 0 4s-4 6-4 4l-1-1v1c2 2 1 3-1 3-2-1-2-1-2 1v4c2 4 2 5 1 5v4l-1 3c-1 1-1 1 1 1 1-1 3 0 4 1l2 1-2 1h-2l-2 2h3l2-1v1 3l1 1h1c0 2-1 2-4 1s-3-1-2 1l1 4c0 4 0 6 1 5 1-2 3-2 3-1s-1 2-3 2l-2 1c-1 1-1 1 1 1 2-1 5 0 5 2l-2 2c-2 3-4 1-5-2l-2-3-1 1-1 2-2 1v-3c-2-2-2-1-2 2 0 5 2 8 4 6 1-1 1-1 2 1l2 2v1c-2 1-2 1 0 1 2-1 3 0 2 1l-1 1c-2-2-3 1-3 11 0 11-2 18-2 9l-1-7v-1l1-1-1-2v-2-2c-2-2-2-2 0-2 1-1 2-4 0-4v-1c2 0 0-4-2-4l-1 20c0 16 0 20 2 21l1 5v3l4-4c4-4 6-5 8-1 0 2-1 5-4 5v1l-1 1-3 1h6l3-2c2-2 2-4 2-9l1-7 1 9v8h3c2 0 2 0 0-1-1-2-1-2 1-3 2-2 2-3 2-14 0-7 0-11-1-10l-1-1 1-1v-1c-2 0-3-2-3-4h2c1 0 2 0 2-2 0-3 0-3-2-2l-2 1 1-1v-2c-1-1-2-2-1-3v-4h3c1-1 1-1 0 0l-3-2v-1-2l-1-2 2 1 1 1-2-3-1-1c2 0 2 0 1-2l-1-3h-1v22l-1 22-1-23-1-23v-1-1l-1-2 1-2 1 1 1 1c1 1 1 1 0 0h1c2 1 2 2 0 3v1l3-1 1-1-1-2-1-1c0-1-1-2-3-2-3 0-4-1-2-2v-1c-1-1 0-1 1-1 2 1 3 0 3-3 0-4-1-5-2-4l-2-2 2-2v-8l1 4c1 3 2 4 3 2 1-1 2-2 3-1h1l-2-2v-1c2 1 2 0 2-4s0-5-1-3c-1 1-8 2-7 0v-1l-1 1v2l-1 2v2c2 2 1 5-2 6-4 1-4 0-3-7l2-2c2-1 2-1 0 0l-2-1v-2-1l2-4c2-1 3-3 2-3-1-3 7-7 8-5h3c1-1 2 0 2 11 0 10-1 13-2 14v1c2 1 2 2 2 7-1 5-2 6-4 4h-2v2l1-1 1 1 2 1 1 18c0 19-1 21-4 20h-1l2 1c1 0 2 1 2 3v31c0 2-2 2-5 2l-4 1 2 1c3 0 5 1 4 3-1 1-1 1 3 1h4v6c0 4 0 5-2 5l-1 3c0 4 0 4 4 5 3 1 3 1 3-3v-5h8v-9c0-8-1-12-3-9-1 2-10 4-8 2l-2-2c-1 0-2-1-1-2l1-32v-32l6-2h5v4 3l1-32c0-21 0-32-1-31-1 0-3-3-2-4l2 1c1 1 1 0 1-2 0-3 0-4-1-3l-1-1-1-3h1c2 2 2 2 2-1 1-3 0-3-1-2-3 0-4-1-3-4 0-2 4-3 4-1V13l-1-4h-26c-22 0-26 0-27 2zm36 4l-3 1v-1c2-2 3-2 3 0zm5-1c1 1 0 2-2 2s-3-1-1-2h3zm10 0l-1 2h-2v-2h3zm-15 11l-3 1h-3l3-1 3-1v1zm13 0l2 3c2 2 2 2 0 2l-2 1h2c2 1 2 2 2 5s0 3-1 1l-1-1-2 3c-1 1-1 1 1 1s2 3 0 4l-1 2-1 2-1 3v4 2h3v2c-3 6-5 6-5 1l-2-4-1 1v1-10l1 1c-1 1 0 6 1 6l1-6v-5h-7l-8-1 2-1 1-2c0-2-3-4-3-2h-2c-1-2-3 1-2 4 0 2 0 2-1 1l-2-4-1-2c-1-1 4-1 10-1 11 0 15 1 11 2v1c1 0 2-1 2-3v-8c0-3 1-4 3-4l1 1zm-12 4l-1 1h-5c-3 0-4 0-3-1h9zm-20 11l-1 2v-2l1-3v3zm3 2l-1 2v2l-1 2c-2 1-1 2 1 1 1 0 2-1 1-3l1-2 1 5-1 5-1-2-1-1-1 2c-1 1 0 2 1 1v2c-2 2-2 2 0 3 2 2 2 2 1-1l1-3 1 4c1 4-2 8-4 6l-1 1c2 2 0 4-2 3-2 0-2 0 0-1v-3c-1-2-1-2 1-2v-1c-2 0-2-1-1-1l1-2h-1v-1-3l1-8 1-3 1-3 1-1 1 2zm9 1l-1 1-1-2c0-2 0-2 1-1l1 2zm8 7l-1 3-1 3c1 2 1 2-3 2h-5V48h4l5-1 1 3zm-11 6c0 2-1 1-1-2l1-2v4zm14 4l-7 1c-5 0-6 0-4-1h11zm-12 4l1 1c0 2 0 2 2 0l5-2 4 1v2c-1 1-1 1-3-1v1l-1 4v1c1-1 2 0 1 1h2l2 1h-2l-1 1-2-1-4-2-2-1-2-4-2-1v1c2 0 1 4-1 5h-4v-5l4-3 3 1zm-3 109c0 2-2 3-4 2-3 0-3-3-1-5s2-2 4-1l1 3zm27 21l-1 1c-3 0-2 2 0 2l-1 1c-4 2-6 1-6-1s1-3 3-2l3-1h2zm-2 8c-2 0-1 2 1 2l-1 1c-4 1-6 1-6-2 0-2 0-2 2-1h1l2-1c2-1 3 0 1 1z"/><path d="M252 41l2 1c1 0 2 0 1-1l-2-1-1 1zM56 17c0 1 1 3 3 3 1 0 2-3 1-4 0-2-3-1-4 0zM227 18h2v-1c0-2-2-1-2 0zM184 19c0 5 0 11 2 11l1 2h4c2-1 2-1 0-1-3 1-3 0-4-1 0-2 0-2 1-1s1 0 1-2c1-3 0-4-2-3-2 0-2 0-2-4 0-2-1-3-1-1zM101 21v4 2c2-1 2-6 1-7l-1 1zM20 22l2 4v5l1 2 1-2c0-3 1-2 3 0 1 1 2 2 5 2s4-1 5-3l1-3-1-2v-3H20zM212 24c-1 2-2 3-4 3l-3 1 1 1h1l-2 1-1 7-1 7 1 1 1-1c1-2 1 6 1 60v57l-1-19v-26l-1 29c0 28 0 34 2 31 3-3 7 0 7 5l1 4c1 1 1 0 1-3l1-4v-9-14c0-11 0-12-1-6 0 6-1 6-1 4l-1-7c-1-3-1-3-1 2v5l-1-6-1-6v15l-1-6v-48c0-43 1-58 1-24v18l1-15 1-16v17l1 15V87l1-7 1 2v3l1-26 1-28v-2l1 2c1 2 1 2 1 0l-2-4-3-3c-1-2-1-2-2 0zM164 30l-1 13v11l1-12V28v1zM196 35l2 2v-2l-1-2c-2 0-2 0-1 2zM105 37l1 8c0 3 0 5 1 4v-2l1-1v-6c2-2 1-3-1-3v-1h2l1-1-3-1c-2 0-2 0-2 3zM117 35c2 0 1 2-1 2-1-1-2 0-2 1 0 3 0 3-1 2-2-1-2-1-1 1v2l2-2c3-2 4-1 2 3-2 3-2 3 0 2 3-2 5-5 4-6l-1-3c0-1 1-2 2-1l5-1c1-1 0-1-4-1s-6 0-5 1zM131 35h17l-10-1c-6 0-9 0-7 1zM191 37l-2 1h2c2 0 2 0 2 3v1l1-4c0-2-1-3-3-1zM151 38l3 2c2-1 2 1 1 3-2 3-2 4 2 1 2-1 3-5 0-6h-3-3c-1-1-1-1 0 0zM96 41c-1 1 0 4 1 4s2-1 2-3-1-3-3-1zM171 41v3l2-2c0-2-1-3-2-1zM200 42l1 3v2l1-3c0-2 0-3-2-3v1zM173 46l-1 1c1 1 2 0 3-1 2-2 1-2-2 0zM193 45v2 7l1-2v-3h1c0 2 0 2 1 1 1-2 1-3-1-4-1-1-2-2-3-1z"/><path d="M218 49c0 2 1 3 1 1v-4c-1-1-1 0-1 3zM22 51c1 4-1 7-4 8-2 0-3 2-3 3l1-1c1-1 1 6 1 18v41c-1 1-1 1 1 1 1-1 2 0 3 1v1c-1 0-2 1-2 5s0 4 2 5l3 1 3 1 5-1 4-4 2-4-3-1-7-2c-5 0-6-1-6-6v-3l1 4 1 3 1-2c-1-3-1-3 3-3 6-1 8 0 8 2 0 4 1 7 3 6l2 1c1 2 2 2 4 1l6-2 2-1h-2c-1 0-2 0-3-2v-3l1 1 2 2 1-1v-2-1c-2 1-2 1-1-1v-3c-2 1-2-1 0-3v-2l1-1c3-2 4-2 4 1v1l1-2c1-1-2-4-3-4v-2l1-3h1c1-1 0-2-1-2-3 1-4 0-3-3 1-1 1-1 1 1s0 2 1 1h3l1-1 1-1 1 2h1l2-1h-1l-1-1 2-1c1 1 3 0 6-1 4-1 6-2 5-3l-2-1-1-1-1-2 2-2c1-1 0-1-1-1h-3l-2-1c-1-1 0-1 1-1 4 0 4-2 0-2l-5-1v1c3 2 2 3 0 2-2 0-3-1-2-2l-2-1-1 1c1 1-2 2-4 1v-1c3 0 1-2-2-2-6 0-8-3-8-8l-1-4-1-1 2-1c1 0 1-1-2-2h-3l-2-1-2-2h-1l-3-1c0 1-1 0 0 0 0-2-3-4-4-2l-2-1v-1h1l-2-1v-1-1c-2 0-2 0-1 2zm1 12c0 3-2 3-2-1l1-3 1 4zm12-1c2 1 3 14 3 33v19h-8l-8-2-2-23c0-21 0-21 2-22 2 0 2-1 2-3l1-3h1c1-1 8 0 9 1zm18 19c-1 2-3 2-3 1l2-2 1 1zm8 2v4l1-3 1-1c0 2 0 3 2 4h2c1-1 0-2-1-1-2 0-3-1-1-3 2-1 2-1 3 1v5c-1 1-3 2-4 1v-1c1-1 1-1-1-1h-3c-2 0-2 0-2-2l2-4c0-3 2-2 1 1zm12 6l-2 1-1-1h3zM26 49c1 1 9 0 10-1h-6c-4 0-5 0-4 1zM156 50h-3v8c0 17 0 15 4 15h3V61 49l-4 1zm2 12c0 10 0 10-2 10-1-1-3-5-1-5v-9l1-3c0-7 2 0 2 7zM204 65c0 9 1 12 1 8V57l-1 8zM74 55l1 2v-3c0-3-1-3-1 1zM47 57c0 4 0 4 3 4 2 0 3-1 4-3 0-3-1-5-4-5s-3 0-3 4zM179 60l1 2c2 2 3 1 1-2h-2zM218 65c0 2 1 3 1 1v-4c-1-1-1 0-1 3zM74 66l1 2v-3c-1-4-2-4-1 1z"/><path d="M15 67v14l1 11V78c0-13 0-18-1-11zM56 70c0 3 0 5 1 4h2l1-2c0-2-1-2-2-1s-1 1-1-1l2-3-1-2c-2 0-2 1-2 5zM117 81l1 3 1-3-1-4-1 3zM156 81c0 2 0 3 1 2l1-4c-1-3-2-2-2 1zM239 79c-1 2-1 6 1 6l1 1 2 1c2 0 3-1 3-5s-1-4-3-4l-4 1zM204 97c0 8 1 11 1 7V89c0-4-1-1-1 8zM101 85c-2 2-1 7 1 7l1-4c0-4 0-5-2-3zM215 93v3c1 1 2-1 1-4-1-2-1-2-1 1zM66 97c-3 2-4 4-2 4h1l1-2 2-3v-1l-2 2zM73 96v4s2-1 2-3l1-2-2 2-1 2v-2-1zM115 101l-1 2v2 4l1 5c1 4 2 7 2 4 0-2 1-2 4-2l1-5-1-4-1 1v2l-1 3c0 2-3 0-3-3 0-2 0-3 1-2s1 1 1-1c1-1 1-1 0 0l-1-2c1-1 1-1 0 0s-2 0-1-2c0-3 0-4-1-2zM98 104l-1 3 1-1v-3zM107 105l-1 3v1c1 0 2-1 2-3s0-2 1-1h1c-1-3-3-2-3 0zM247 106l1 2v-4l-1 2zM212 109l1 4h1l-1-4-1-2v2zM56 111v3l2-2v-2l-2 1zM71 111v4c0 3-1 3-3 4l-5-2-2-3 2 4 4 3c2 0 4 4 4 8 0 2 0 2-3 2s-4-1-5-2h-1l1 1 1 2c-1 1 0 1 1 1 3 0 5 4 5 8 0 3-6 3-9-1l-2-3h-1c0 1 0 2-1 1l-2 1-2 1v-1c1-3 1-6-1-6l-3-1h-2c-2 1-2 1-2-1h-1l-1 1c-1 0-2 1-2 3 1 2 1 3 3 3s2 0 2 11v11H32c-9 0-13 0-12 1l9 1h9l1 7c0 8 0 10 4 12h3l3-1 4-1c3 0 4 0 5 2h1l2-4c2-2 3-5 1-7l-1-3 1-1c-1-1-4 0-3 2l-1 1-2-2 1-2 1-2 1-2 3-2h5c2 3 2 8 0 8h-2l-2 1 3 1 2 1c-1 1 0 1 0 0l1-1h2c2 1 3 3 1 3l-1-1-2 1v1h2l2 1 1-3-1-11-1-8h21c16 0 19 0 16-1l-19-1c-14 1-18 0-18-3l4-1c4 0 4 0 1-1-4-1-5-2-5-4l20-1 20-1H93c-17 0-21-1-21-4l18-1 17-1H90c-15 0-18 0-18-4l7-1h7l-6-1c-6 0-8-1-8-4l20-1 15-1H88l-15-1c-1-2-1-6 1-5h1l-1-1c-1 1-2 0-2-2l-1-2zm-4 35c1 1 2 2 1 5l-1 3-2 2h-4l-3-4h-1v-2l3-2 2-2c-1-1-1-1 1-1l4 1zm-10 27h-3l-4-1h4l3 1zm-1 3l-3 1-3-1 3-1 3 1zM174 110l2 3v1l-2 1c0 1 3 2 4 1v2l-1 3c1 2 3 1 3-1 1-1 1-1 0 0-2 2-3 1-1-2l3-2 2-1c1-1 0-1 0 0-2 0-2 0-1-2h-1c-2 2-5 1-6-1l-2-2zM171 113c1 1-1 2-7 1-6 0-6 0-6 3 1 1 0 2-1 2l-2-2 1-1v-1c-1-2-2-1-2 2s-1 3-2 2c-1-2-2-2-4 0s-3 3-3 6l-1 3c-1 0-2-1-2-4s0-4 2-4l2-2c0-2 1-2 4-2 2 0 3 0 2-1s-9 0-9 1h1l1 1c0 2-3 2-3 1h-1c0 1-3 1-3-1l2-1c2 0 1-1-3-1h-3l1 1 1 2c1 2 2 2 3 2l2 2c0 1-3 2-3 0l-3 1-2 2h4l4 1-1 2v1l1 4c0 4 0 4-2 4-3-1-5 0-3 1v3 2l1-3c1-3 4-3 4 0l-1 2v1l1 2c-1 2 0 2 1 2 2 0 3 0 3 2l-1 2v1l1 2c1 2 1 1 1-1v-5-3l-1-3v2l-1 2c-2 0-2-2-2-9l1-8 2 2h1l2-2c1 0 2 1 2 4l-1 4v1c2 0 2-1 2-5 0-5 3-6 3-1 0 1 1 1 1-2 0-4 0-5 2-5s2 1 2 5c0 2 0 2 1 1 0-3 3-2 3 0-1 3-1 3 3 3s5-1 3-2h-2l-2 1-1-7c0-6 0-6 2-5s2 1 0 3c-1 1-1 1 1 1 2-1 2-1 0 2l-1 3 3-4 1-3h-1c0-2 2-4 3-2l2-1v-1l-1-4-1-3-1 1zm1 5l-1 1-2 1v-1c0-2 0-2-1-1-2 1-4 1-4-1 0-1 1-2 4-1 3 0 4 1 4 2zm-9-1c-1 2-3 2-3 1l2-2 1 1zm-13 5v4c1 1 1 1 1-1l1-5 2 4c0 4 0 4-4 4s-4 0-4-3 1-4 2-4l2-1v2zm9-1l-1 1c0 3-3 2-3 0-1-1 0-2 2-2l2 1zm4 3l-1 4c-1 0-2-1-2-4l1-3c1 0 2 1 2 3zM196 117l-2 3c-2 2-2 2 1 0 2-1 3-2 2-3 0-3-1-3-1 0z"/><path d="M56 118h2v-1c0-1-2-1-2 1zM119 119c0 2 0 2 1 1v-3l-1 2zM222 121v4c2 3 3 3 3 0 0-1 0-2-1-1l-1-1v-1l1-2c0-3 0-2-2 1zM172 125c0 2-1 3-2 3-1 1-1 1 1 1l2-1 1-3-1-2-1 2zM95 128h12c4-1 1-1-6-1s-10 0-6 1zM116 127v6c1 0 2-5 1-6h-1zM56 129v1l3-1h-3zM172 134l-1 3-2-1h-1l-2 1v1c3 0 3 3 0 4-1 1-1 1 1 1 2-1 3-1 2-3l1-2c1 0 2 1 2 4l-1 4-2-1h-1-4l-1-3v1l-1 3v1c4-1 6 0 6 2s-3 3-4 0l-2 1c-2 2-2 1-2-6l-1-4-1 2v1l1 1-1 2v1c2 0 1 2-1 4h1c1 0 2 0 1 3 0 2 0 2 1 0l1-2 2 2c1 2 1 2 1 0s0-3 2-2l1 1 1 1c1 1 1 0 1-3l1-4c2 0 2 1 2 4s0 5 2 5h2l-1-1-1-1v-2-1c-1-2-2-16 0-17l-1-2c-1-1-1-1-1 2zM154 138c0 2 0 3 1 2l1-2-1-2c-1-1-1-1-1 2z"/><path d="M159 136l-1 1 1 1h3c2 1 2 1 2-1s0-2-1-1h-3-1zM115 138l1 1 1-1v-2l-2 2zM213 137v4l1-2c0-3 0-3-1-2zM119 140c0 1 0 2-2 2-1 0-2 1-1 2 0 3 1 4 1 1s2-3 5-1c2 2 2 2 2 0 1-1 1-1 0 0l-4-3-1-1zM245 143v1l-1 1v1c2 2 3 1 3-1l-1-3-1 1zM84 145h23c1-1-2-1-10-1l-13 1zM149 146v1c2 0 1 4-1 4v1l2 1h1v-2-4c0-2-1-3-2-1zM153 146v1l1 4v5l1-6v-6l-2 2zM135 150c-1 1 0 2 3 2l4-2h-1c0 2-2 1-3 0-1-2-2-2-3 0zM116 150c-2 0 0 3 2 3s2 0 1-1c-1 0-2-1-1-2h-2zM75 157l38-1H94l-19 1zM134 159c0 2 0 2 1 1v-4l-1 3zM115 163l1 6 1-1v-1-2l1-1c2 0 3-5 1-6l-1 1h-1c-2-1-2 0-2 4zM179 159v2l-2 2v-1-2c-2-1-2 0-2 3l1 3 3-3 1-3-1-1zM182 162l2 1c1 1 1 1 0 0v-2l-1-1c-1 0-2 1-1 2zM99 163h4c1-1 0-1-2-1s-3 0-2 1zM15 166c0 9 0 11 5 10 2 0 2-1 1-1v-1l-1-1c-3 0-4-1-4-3 0-3 0-3 1 0l3 2c2 0 2 0 1-1l-1-2-1-1v-1l2 1 1 1 1-3c-1-2-1-3-4-3-4 0-4 0-4 3zM163 167c2 2 1 5-1 6v1l2-1v2c-1 1-1 1 0 0l3-1 3-3c1-3 1-3-1-4h-6zM135 168l1 1c2 0 2 1 1 3-1 3 0 4 1 3 1 0 1-8-1-8l-2 1zM180 169l-2 2v1l2 1 3 1c3 0 3 0 3-4l-1-3v3c0 3 0 3-2 3-3-1-3-1-2-4v-2l-1 2zM141 169l-1 3c0 2 0 2 1 0l1-3h-1zM146 171l-2 1-1 1c0 2 4-1 4-2v-2l-1 2zM94 172l2 3c2 3 1 5-2 8l-2 3h9l-1-4v-6c0-1-1-2-3-2-3 0-2-1 2-1s3-2-2-2l-3 1zM200 172l1 4c-1 3-1 4 1 4l1-4c-1-4-2-5-3-5v1zM195 173l-2 5c1 2 0 3-2 2-2 0-2 0 0 2 1 1 1 1-1 1l-3 1 3 1 5 1 2 1v-1c-2-2-1-4 1-6 1-1 1-7-1-8l-2 1zM116 175l-1 3-2 1v1c1 2 3 0 3-3 1-2 1-3 2-2l2-1c0-2-2-1-4 1zM108 177v5h1l1-1h1l-1-2v-2l-1-2-1 2zM85 179v3c2 3 2 3 1 0v-3-1l-1 1zM174 181l-1 1c-1-1-2 0-2 1 0 3 4 3 4-1l-1-2v1zM177 182c-1 4-2 10-1 11h6c4 0 5-1 5-3s0-2-3-2l-5-1 3-1c2 0 3 0 3-2 0-3-1-3-4-3l-4 1z"/><path d="M197 183l1 2 1-2-1-2-1 2zM200 183c0 2 0 2 1 1v-2c-1-1-1-1-1 1zM22 200l1 16 1-3 2 1 2 2 3-4 4-4 1 1h1c1-1 1-1 2 1h3c1-1 2-3 1-4h-4l-1 1-1-2v-2h-2c-1-1 0-2 1-2 2 0 2-1 2-2l1-1 1-1c-1-1-2 0-3 1-2 3-7 3-8 0-2-3 0-7 3-8 2-1 2-1 0-1-1 1-3 0-4-1l-2-1c-1 0-2 0-2-2l-1-2-1 17zm14 4v1c0 2-1 2-3 1v-2l3 1zm-11 4c0 3 0 3-1 2l-1-4c1-2 2-1 2 2zm5-2l-1 1c-2 1-2 0-1-1h2zm0 4l-1 2-1-3c1-2 2-1 2 1zM204 186c0 2 0 2-1 1h-7l-1 3 1 3v-1l1-1 1 1 3 1 2-2c0-1 1-2 4-2s4 0 3-1c0-1-1-2-3-2l-2-1-1-1v2zM84 186l2 2c2 1 3 2 2 3 0 1 2 3 3 2s-2-7-3-6l-3-1h-1zM75 189l-1 3v2c2 0 1 2-1 3s-2 1 0 1c3 0 4 1 2 3-2 1-1 2 2 0 3-1 3-1 2-4v-3c1 0 3-4 2-5l-4-1c-3-1-3-1-2 1zM143 188l2 1 3-1-2-1-3 1zM165 188h4c2-1 1-1-2-1-2 0-3 0-2 1zM42 189l-1 1h2c2-1 1-2-1-1zM108 189h4c1-1 0-1-2-1-3 0-3 0-2 1zM214 190v2h1l2 1c2 0 2 0 2-2-1-3-2-3-5-1zM36 190l1 2c3 1 4 1 2-2h-3zM93 191v2 3l1-2c1-2 0-2 28-2l22-1-25-1H93zM146 191l14 1c11 0 13 0 12 2l1 1c2 0 2-1 1-3s-3-2-15-2l-13 1zM44 197l1 6c2 0 2 0 1 1v4c1 3 1 3 1-1v-5c-1 0-1-2 1-2l1 2 1-1h1l2 1v-1c-1-1-1-1 1-1l2-1h1c1-1 0-1-3-1h-4c-3 1-3 1-4-3-1-5-2-4-2 2zM206 194l1 2 1-2-1-2-1 2z"/><path d="M30 194l4 4v-3c-1-2-2-3-4-1zM143 194l2 1 2-1-2-1-2 1zM66 195v2c0 2 0 2-2 1v1l2 2v2c0 3 1 0 2-4l1-4c1-1 1-1-1-1l-2 1zM96 195h11c20 0 22-1 5-1l-16 1zM231 196c0 1 2 1 3-1l-1-1-2 2zM58 196l2 2 1 1 1-2-1-2h-2c-2 0-2 0-1 1zM228 196l-4 1c-3 0-3 0-3 3s0 4 4 4c4 1 4 0 4-5 0-3 0-5-1-3zm-1 5c0 1 0 2-1 1h-1c-1 1-2 1-2-1-1-2-1-3 2-3 2 0 2 1 2 3zM111 198h4l2 1 1 1 1-2-4-1-4 1z"/><path d="M106 199l1 1c2 0 2 4 0 6-3 2-6 2-6-1-1-2-1-3-3-2l-5-1h-2-2l-2 1h-1l-1-1v2l-1 1c-1 1-2 0-1-1l-1-1h-1v-2l-1 3-1 2-2 1c-1 1-1 1 0 0l-1-3-1 1v1l-2 1c0 2 4 2 6 1h1l39 1c36 0 39 0 38-2l-4-1h-1v-3l-1-1h-3-8v-2h-1c-1 1-3 2-11 1h-12l-3-1-5-1h-2zm-15 6l-1 2-1-1c-1-2 1-3 2-1zM154 202h2l-1-1-1 1zM202 207c2 2 1 3-1 3-2 1-2 1 0 1 3 1 3 0 3-2 1-2 0-3-1-3-2 0-2 0-1 1zM55 207v4l1-3-1-1z"/><path d="M59 208v8l-2 1c-3 1-5 1-6-2v-3-1c-2 0-2 2-1 4s0 5-2 6l-2 1h-2c-3 0-3 0-2 1l-1 2-1-1-5-1-5-2-2-1c-3 0-3 0-3 6l-1 6v-6l-1-7-1 6c1 7 1 8 3 9 1 0 2 1 1 2l1 1 1-2v-3-3c0-3 2-4 4-1h2c1-2 2-2 3 0 1 1 2 1 3-1h2c1 1 0 2-1 3-2 2-2 2-1 4 2 1 2 2 1 4h-4l1 1c2 1 8-1 8-3l5-2 2-3c1-3 5-3 5 1 0 2-1 2-3 2s-2 1-1 2 1 1-2 1h-3l2 1c3 0 3 0 1 4l-2 3 3 1c5-1 7-2 4-3l-1-2v-3c0-1 0-2 1-1 1 0 2 1 1 3l1 3v2 4l1 5c0 3 0 4 1 3l51-1 49 1v4c0 3 0 4 2 4 3 0 5-1 3-2h-1l-1 1c-2 0 1-3 3-3h10l1-1c-1-1 0-3 1-4l2-2-1 2-1 3c1 2-1 8-2 7-1 0-1 1 1 3 1 2 1 3-1 4v2c1-1 2-1 1 1l1 1c2-1 4-2 3-4l-1-2v-8-6c1 1 1 0 1-1 0-2-1-3-3-3s-2 0-2 2 0 3-3 3c-2 0-2 0-1-2v-1c-1 1-1 0-1-1l1-3 1-2h-5c-3-1-3-1-4 2 0 2 0 2-2 1l-1-1c-1 1-1 0-1-3 0-4-1-5-2-3v2c2 0 1 1-2 2l-2-1h-2c-2 0-2 0-1-2l-2-1h-3l1 2v8l-1-1c1-2-1-4-3-3-2 0-2 3 0 2v1h-2c-2-2-8-3-9-1l-1 1h-2c-1-2 0-2 1-3l3-2h8c1-2 0-2-3-2l-7 2-8 2c-4 2-4 2-5 0l-2-2-1-3c0-1 0-2-1-1v2l-2 2-2 1h-2c-2 0-4-4-2-5h-7l-1 2-1 2-6 1c-4 0-4 0-4-3 0-2-1-2-1 1-1 1-2 2-5 2l-5 3c0 1-1 2-2 1l-4 1c-3 1-4 1-3-1l-1-1-3 1c-3 1-3 1-2-1v-3l-2-8c-1-5-1-6 1-7v-1l21-1h49l29-1v4l1 6c1 1 1 1 3-1 3-4 4-5 6-5h2l-4-2-4-1-2-1-1-1-1-1-3-1h-1l-2-1h-4c-2 0-7-2-7-4 0-3-2-2-3 1l2 3c2 1 2 2 1 2h-2l-3-4-1 2-1 3-1-3c0-3 0-3-1-1s-1 2-1-1-1-4-5-3l-5 1-1 1v1c-1 1-1 2 1 2 2-1 2 2 0 3l-1-1c1-1 1-1 0 0h-2l-1-1-4 2c-2 0-3-1-3-2-1-2 1-5 2-3h4c1 1 1 1 0 0 0-2-2-2-5-2-4 0-5 0-3-1l3-1h-3l-14-1c-11 0-11 0-9 2 3 1 3 4 0 6-2 1-3 2-4 1h-2l-7 1c-6 1-7 1-9-1-2-1-2-2-1-3h4c5 1 5 1 4-1l-2-2-4-2-5-1v-3-7l-2-3zm-2 16c1 2-1 3-4 2-2 0-2 0-1-2s4-3 5 0zm43-1l-3 1-1-1 2-1c1 0 2 0 1 1zm-2 4l-3 1h-1c0 1 2 2 3 1 1-2 2-1 1 1 0 2-5 1-5-1s1-3 3-3l2 1zm8 0h1c1-2 3-1 3 2 0 2 0 2-1 0h-1c0 2 0 2-1 1h-2c-1 1-1 0-1-1 0-3 2-4 2-2zm-7 25v2h-3c-3-3 0-4 3-2zm9 0c3 0 3 0 1 2h-2-1c-1 1-1 1-1-1h-2c0-2 0-2 5-1zm51 0l-1 2c-1 1-1 1-1-1l1-2 1 1zm-71 2l-2 1-1-1-1-1c-1-1 0-1 1-1l3 2zm83 2l-3 3-1-1 1-1h1v-1l-1-1c1-2 3-1 3 1zM214 208l-2 2-1 3c-1 0-2 1-1 2 0 2 0 3-2 3h-5l1 2h3l4-2 4-2 1-2v-1l1-1 1-2h-1l-1-1-2-1zM160 211c0 5 1 9 3 8s1-11-1-11c-1 0-2 1-2 3zM167 211l1 5c0 3 0 4 2 4l11-1h10v-8h-24zm17 3l1 1 1-2h1l2 2c0 1-1 2-7 2l-7-1 2-1c2 0 3-1 3-2 1-1 5-1 4 1z"/><path d="M65 215l5 1c4 0 5 0 3-1h-8zM108 215h20c5 0 1-1-10-1s-16 1-10 1zM143 215h6c2-1 1-1-3-1s-5 0-3 1zM234 218c-2 1-1 2 1 1l3 1c1 2 2 2 3 1v-1l-2-1c0-2-2-2-5-1zM248 221v1l-1 2c-1 1 0 1 2 2h3l2-1 2-1c0-2 0-2-2-1l-4 1v-1l1-1-3-1zM233 224c0 3 1 3-17 3l-13 1-1 13-1 13-3 1-4-1-1-1h1l1-1h-6l-2 1c1 1 1 1 0 0-2-1-4 0-4 2 0 1 3 2 4 1 2-2 8-1 11 2 2 2 3 2 3 1v-4h2c2 0 2 0 1-2v-22c0-1 3-1 5 1 3 1 2 4-1 4s-4 4-2 4c1 0 2-1 1-2l7-1c7 0 8 0 8 2l2 3-1 1h-1l2 1c2 1 3 1 2 3 0 2-2 3-2 1h-1l-6 1c-5 0-7 0-8 2-2 1-2 1-2-3v-3l-1-1 1-1 1-1-2-1-1 6c0 4 1 6 2 6 2 0 2 2-2 4s-4 3-3 6c1 2 0 9-3 11l-4 2-4 2c-1 2 7 0 9-2l4-2c2 0 2 0 1-1v-7c0-1 1-2 3-2l2-1-2-1c-2-1-2-1-1-2h5c-1-2 0-2 9-2h12l1-11c0-21 0-22 2-22 1 1 1-2-1-3-1-2-2-1-2 2zm-15 12l-1-1h-3v1c-2 0-2-1-1-2 1-2 1-2 4 0l1 2zM246 227c1 1 1 2-1 3s-2 1 0 1c3 0 5-3 3-4h-2zM36 231l-4 1c-2 0-2 0-1 2 2 1 2 2 1 3-1 2-2 2-4 1h-4v1c-2 0-2 1-2 5 0 3 0 4 2 4s3 3 1 5l-1-1-1-2-1 8 1 8 1-6c0-5 0-6 2-6h4l1 1v2c1 1 1 1-1 1l-2 2v4c1 1 2 0 1-2l1-2 1 2c0 1 1 1 2-1v-2c1-2 1-2 2-1h1l1-2v5c-1 4 0 5 2 6s2 1 1 2v3c-2 2-2 2-1 3l2 4c0 2 0 2 6 2 7 0 6 0 6-7 0-6 0-7-1-6v-2l2-3-5 2c-10 2-11 2-10-6 0-3 1-4 2-3 1 0 2 7 0 7l-1 1c0 3 3-2 3-5s2-4 2-1c1 1 1 1 1-1 1-1 0-2-2-1l-2-1-2-1-2-3c0-2 0-2-2-1l-3 2c-2 0-5-2-5-4l-1-3h2c0-2 4-3 7-2l2 3 1 2c1-1 1-5-1-6-2-2-2-5-1-7l1-3c0-1-1-2-2-1zM249 235l1 1 4 1v-1c-3-2-5-2-5-1zM140 238l4 1c2 0 3 0 2-1l-3-1-3 1zM79 239h29c8 0 2-1-14-1s-23 1-15 1z"/><path d="M209 240c-1 1 1 2 2 2h1l-2 1-1 1h2c1-1 2-2 3-1l-1-2c-2-3-3-4-4-1zM257 241c3 0 3 2 0 3h-3l-1-3-1 1-1 4v4l-1 3h-2-1c-1 1 0 2 2 3l3 1h2l-2-3c-1-1-1-1 1-1l3-1 3-1c4 1 5 0 5-5 0-3 0-4-2-3l-2-2-2-1c-2 0-2 0-1 1zm-2 6c1 2 0 4-1 4-2 0-3-2-3-3 1-2 4-2 4-1zM166 244c0 3 8 3 9 1 1-1 0-2-1-2l-4 1h-1c1-1 0-1-1-1l-2 1zM31 246v3c2 2 3 1 3-1-1-4-1-4-3-2zM120 245l-1 2h1l1-2h-1zM124 245l-1 1h9c1-1 1-1-2-1h-4-2zM178 246v1l-1 1c-1 1 0 2 1 2l1-1 1-2c1-1 1-2-1-2l-1 1zM182 248c0 1 0 2 1 1l1-2-1-2-1 3zM65 247v6l1-3-1-3zM121 250c-1 1 0 1 1 1l2-1-1-1-3 1zM242 253c-2 1-1 2 1 2l2-1-3-1z"/><path d="M258 256c0 2 0 2-5 3l-6 1 2 1 4 1h2l2-1-1 2v2h1c2-2 3-1 3 1v1l1-1 2-1 1-4-1-4c-2 1-3 0-3-2l-1-2-1 3zM49 256l-1 4c-1 2 0 3 1 3 2 0 2-1 2-4 0-5-1-6-3-3zM242 261h4l-3-1c-1 0-2 0-1 1zM65 262l21 1h21l-42-1zM131 262h4c2-1 1-1-2-1l-2 1zM143 262h8c2-1 0-1-4-1l-4 1zM59 263c0 1-1 2-3 2-2 1-2 1 1 1 2 0 3 1 3 2l1 1v4l1 3 1-3c0-3 0-3 3-3 2 1 2 1 3 5 0 3 0 4 2 3 1 0 2-3 0-3l-1-2 1-2c1 1 2 0 3-1 1-2 1-2-5-2-7 0-7 0-8-3l-2-2zM239 265v2c-1 1 0 2 3 2 2 0 3-1 3-2 1-2 0-2-3-2h-3z"/><path d="M251 265v2l-2 1c-2 0-2 0 0 1l3 2 2 1 1-1c-1-1 3-2 6-1l1 1v1c2 2-10 3-13 2-1-1-2 0-2 1-2 2-1 3 2 3 2 0 3 0 3-2h1l1 4c-2 2 0 4 5 4h5v-9c0-8-1-11-2-8l-3 1-4-1c-3-1-3-1-2-2v-1l-2 1zm9 12v3l-2-2c0-3 2-4 2-1zM206 266c-1 2 0 5 1 5l1-2 1-2 1-1h-4zM28 267l-1 2-2 1-3 3 1 2 1-2 2-1 2-1v-5 1zM32 269l3 1c2 0 2 0 0-1l-2-1-1-1v2zM78 271c0 3 0 3-2 3-3-1-3 0-2 1 0 3 1 4 2 2l3-2c2 0 2 0 1 1v1l2 1h2c2-2 2-2 1 0h4c0-1 3-1 4 1l1-1-3-2c-5 0-10-3-6-3s4 0 6-2l2-1h3v3l-1 4c1 2 1 2 2 1h6c-1-2-1-2 1-1l3-1 2-1 2-1c1-1 1-2-1-1-4 0-5-3-2-4 2-1 2-1 0-1-3 0-4 2-4 5 0 2 0 2-1 1-2-1-2-2 0-4v-2l-1 1c0 2-3 3-4 1v-1l1 1h1c1-2 0-2-11-2H77v3z"/><path d="M119 270l-3 1c-2-1-2 0-2 5l-1 2v2l-1 1-2-1-2-2v4c-1 1-3 0-2-1l-2-1c-2 0-2 0-1 1l1 2 11 1 12-1h1c1 2 4 1 5-1l-2-1h-6c1 2 0 2-2 2l-3-1h-1l-3-1v-1l2-1h1l3-2 1-1 2 1 2-1 4-1 4 1h1c3-2 6-2 6-1h3l2 1-1-2-3-2h-1l-2 1c-1 0-2-1-1-3 0-2 0-2-10-2-7 0-9 1-10 2zM148 269l1 3c1 1 1 1 1-1l-2-2c-1-1-1-1 0 0zM152 272h2l2-2h-2l-2 2zM158 272c-2 0-2 1-3 3 0 3 1 4 2 2h14l-1-3c-1-2-1-3-5-3l-7 1zM212 272l-2 2c-4 1-3 4 1 3 2 0 2-1 1-1l-2-1h1l2-2-1-2v1zM232 273c4 0 4 2 1 2-2 1-2 1 1 1 2 0 3 0 3-2 0-1-1-2-4-2-2 0-3 0-1 1zM28 275l1 4v2c-1 2-3 0-2-2l-1-2c-1-1-2 0-1 1l-1 1-1-1-1 2 1 5h14v-6l-1-5h-1c-1-1-2-1-2 1l-1 4v-2l-1-3c-3-2-4-1-3 1zM221 276l-1 1h-3c-2 1-2 1 0 1 3-1 3-1 3 1l-1 3h-5l-6-1h-1l-2 1-2 1 10 1c8 0 9 0 9-2l2-2 5-1-4-1c-3 1-4 0-3-2l-1-2v2z"/><path d="M152 279c0 2 5 2 6 1h3l2-1c1-1-5-1-7 1l-2-1-1-1-1 1zM175 280c1 2 1 2-14 2l-12 2 23-1h3c2 1 3-1 2-3h-2zM246 280c0 2 0 2-2 2-1 0-2 0-1 1h4v-3h-1zM137 282v1l5 1c5 0 6 0 5-1 0-2-4-2-6-1h-2l-2-1v1z"/></svg>